<?xml version="1.0" encoding="utf-8"?>
<!-- Generator: Adobe Illustrator 22.1.0, SVG Export Plug-In . SVG Version: 6.00 Build 0)  -->
<svg version="1.1" xmlns="http://www.w3.org/2000/svg" xmlns:xlink="http://www.w3.org/1999/xlink" x="0px" y="0px"
	 viewBox="0 0 900 175" style="enable-background:new 0 0 900 175;" xml:space="preserve">
<g id="Layer_4">
	<g>
		<path style="fill:#D1D1D1;" d="M270.8,59L235,53.8l-16-32.4c-5.3-10.8-20.7-10.8-26,0l-16,32.4L141.2,59
			c-11.9,1.7-16.6,16.3-8,24.7l25.9,25.2l-6.1,35.6c-2,11.8,10.4,20.9,21,15.3l25.2-13.3c4.2-2.2,9.3-2.2,13.5,0l25.2,13.3
			c10.6,5.6,23.1-3.4,21-15.3l-6.1-35.6l25.9-25.2C287.4,75.4,282.7,60.7,270.8,59z"/>
		<path style="fill:#C2C2C2;" d="M270.8,59l-9.8-1.4c-17.4,44.8-58.2,78.5-108.1,87.7c-1.4,11.5,10.7,20.1,21.1,14.6l25.2-13.3
			c4.2-2.2,9.3-2.2,13.5,0l25.2,13.3c10.6,5.6,23.1-3.4,21-15.3l-6.1-35.6l25.9-25.2C287.4,75.4,282.7,60.7,270.8,59z"/>
	</g>
</g>
<g id="Layer_2">
	<g>
		<path style="fill:#FFCF5D;" d="M758.8,59L723,53.8l-16-32.4c-5.3-10.8-20.7-10.8-26,0l-16,32.4L629.2,59
			c-11.9,1.7-16.6,16.3-8,24.7l25.9,25.2l-6.1,35.6c-2,11.8,10.4,20.9,21,15.3l25.2-13.3c4.2-2.2,9.3-2.2,13.5,0l25.2,13.3
			c10.6,5.6,23.1-3.4,21-15.3l-6.1-35.6l25.9-25.2C775.5,75.4,770.7,60.7,758.8,59z"/>
		<path style="fill:#FFBB43;" d="M758.8,59l-9.8-1.4c-17.4,44.8-58.2,78.5-108.1,87.7c-1.4,11.5,10.7,20.1,21.1,14.6l25.2-13.3
			c4.2-2.2,9.3-2.2,13.5,0l25.2,13.3c10.6,5.6,23.1-3.4,21-15.3l-6.1-35.6l25.9-25.2C775.5,75.4,770.7,60.7,758.8,59z"/>
	</g>
	<g>
		<path style="fill:#FFCF5D;" d="M514.8,59L479,53.8l-16-32.4c-5.3-10.8-20.7-10.8-26,0l-16,32.4L385.2,59
			c-11.9,1.7-16.6,16.3-8,24.7l25.9,25.2l-6.1,35.6c-2,11.8,10.4,20.9,21,15.3l25.2-13.3c4.2-2.2,9.3-2.2,13.5,0l25.2,13.3
			c10.6,5.6,23.1-3.4,21-15.3l-6.1-35.6l25.9-25.2C531.4,75.4,526.7,60.7,514.8,59z"/>
		<path style="fill:#FFBB43;" d="M514.8,59l-9.8-1.4c-17.4,44.8-58.2,78.5-108.1,87.7c-1.4,11.5,10.7,20.1,21.1,14.6l25.2-13.3
			c4.2-2.2,9.3-2.2,13.5,0l25.2,13.3c10.6,5.6,23.1-3.4,21-15.3l-6.1-35.6l25.9-25.2C531.4,75.4,526.7,60.7,514.8,59z"/>
	</g>
</g>
</svg>
