<?xml version="1.0" encoding="utf-8"?>
<!-- Generator: Adobe Illustrator 22.1.0, SVG Export Plug-In . SVG Version: 6.00 Build 0)  -->
<svg version="1.1" xmlns="http://www.w3.org/2000/svg" xmlns:xlink="http://www.w3.org/1999/xlink" x="0px" y="0px"
	 viewBox="0 0 900 520" style="enable-background:new 0 0 900 520;" xml:space="preserve">
<g id="Layer_2">
	<g>
		<path style="fill:#D1D1D1;" d="M514.8,53.2L479,48l-16-32.4c-5.3-10.8-20.7-10.8-26,0L421,48l-35.8,5.2
			c-11.9,1.7-16.6,16.3-8,24.7l25.9,25.2l-6.1,35.6c-2,11.8,10.4,20.9,21,15.3l25.2-13.3c4.2-2.2,9.3-2.2,13.5,0l25.2,13.3
			c10.6,5.6,23.1-3.4,21-15.3l-6.1-35.6L522.8,78C531.4,69.6,526.7,55,514.8,53.2z"/>
		<path style="fill:#C2C2C2;" d="M514.8,53.2l-9.8-1.4c-17.4,44.8-58.2,78.5-108.1,87.7c-1.4,11.5,10.7,20.1,21.1,14.6l25.2-13.3
			c4.2-2.2,9.3-2.2,13.5,0l25.2,13.3c10.6,5.6,23.1-3.4,21-15.3l-6.1-35.6L522.8,78C531.4,69.6,526.7,55,514.8,53.2z"/>
	</g>
</g>
<g id="Layer_3">
	<g>
		<path style="fill:#FFCF5D;" d="M758.8,409.9l-35.8-5.2l-16-32.4c-5.3-10.8-20.7-10.8-26,0l-16,32.4l-35.8,5.2
			c-11.9,1.7-16.6,16.3-8,24.7l25.9,25.2l-6.1,35.6c-2,11.8,10.4,20.9,21,15.3l25.2-13.3c4.2-2.2,9.3-2.2,13.5,0l25.2,13.3
			c10.6,5.6,23.1-3.4,21-15.3l-6.1-35.6l25.9-25.2C775.4,426.2,770.7,411.6,758.8,409.9z"/>
		<path style="fill:#FFBB43;" d="M758.8,409.9l-9.8-1.4c-17.4,44.8-58.2,78.5-108.1,87.7c-1.4,11.5,10.7,20.1,21.1,14.6l25.2-13.3
			c4.2-2.2,9.3-2.2,13.5,0l25.2,13.3c10.6,5.6,23.1-3.4,21-15.3l-6.1-35.6l25.9-25.2C775.4,426.2,770.7,411.6,758.8,409.9z"/>
	</g>
	<g>
		<path style="fill:#FFCF5D;" d="M514.8,409.9l-35.8-5.2l-16-32.4c-5.3-10.8-20.7-10.8-26,0l-16,32.4l-35.8,5.2
			c-11.9,1.7-16.6,16.3-8,24.7l25.9,25.2l-6.1,35.6c-2,11.8,10.4,20.9,21,15.3l25.2-13.3c4.2-2.2,9.3-2.2,13.5,0l25.2,13.3
			c10.6,5.6,23.1-3.4,21-15.3l-6.1-35.6l25.9-25.2C531.4,426.2,526.7,411.6,514.8,409.9z"/>
		<path style="fill:#FFBB43;" d="M514.8,409.9l-9.8-1.4c-17.4,44.8-58.2,78.5-108.1,87.7c-1.4,11.5,10.7,20.1,21.1,14.6l25.2-13.3
			c4.2-2.2,9.3-2.2,13.5,0l25.2,13.3c10.6,5.6,23.1-3.4,21-15.3l-6.1-35.6l25.9-25.2C531.4,426.2,526.7,411.6,514.8,409.9z"/>
	</g>
	<g>
		<path style="fill:#FFCF5D;" d="M270.7,409.9l-35.8-5.2l-16-32.4c-5.3-10.8-20.7-10.8-26,0l-16,32.4l-35.8,5.2
			c-11.9,1.7-16.6,16.3-8,24.7l25.9,25.2l-6.1,35.6c-2,11.8,10.4,20.9,21,15.3l25.2-13.3c4.2-2.2,9.3-2.2,13.5,0l25.2,13.3
			c10.6,5.6,23.1-3.4,21-15.3l-6.1-35.6l25.9-25.2C287.4,426.2,282.6,411.6,270.7,409.9z"/>
		<path style="fill:#FFBB43;" d="M270.7,409.9l-9.8-1.4c-17.4,44.8-58.2,78.5-108.1,87.7c-1.4,11.5,10.7,20.1,21.1,14.6l25.2-13.3
			c4.2-2.2,9.3-2.2,13.5,0l25.2,13.3c10.6,5.6,23.1-3.4,21-15.3l-6.1-35.6l25.9-25.2C287.4,426.2,282.6,411.6,270.7,409.9z"/>
	</g>
	<g>
		<path style="fill:#FFCF5D;" d="M636.8,231.6l-35.8-5.2L585,194c-5.3-10.8-20.7-10.8-26,0l-16,32.4l-35.8,5.2
			c-11.9,1.7-16.6,16.3-8,24.7l25.9,25.2l-6.1,35.6c-2,11.8,10.4,20.9,21,15.3l25.2-13.3c4.2-2.2,9.3-2.2,13.5,0l25.2,13.3
			c10.6,5.6,23.1-3.4,21-15.3l-6.1-35.6l25.9-25.2C653.4,247.9,648.7,233.3,636.8,231.6z"/>
		<path style="fill:#FFBB43;" d="M636.8,231.6l-9.8-1.4c-17.4,44.8-58.2,78.5-108.1,87.7c-1.4,11.5,10.7,20.1,21.1,14.6l25.2-13.3
			c4.2-2.2,9.3-2.2,13.5,0l25.2,13.3c10.6,5.6,23.1-3.4,21-15.3l-6.1-35.6l25.9-25.2C653.4,247.9,648.7,233.3,636.8,231.6z"/>
	</g>
	<g>
		<path style="fill:#FFCF5D;" d="M392.8,231.6l-35.8-5.2L341,194c-5.3-10.8-20.7-10.8-26,0l-16,32.4l-35.8,5.2
			c-11.9,1.7-16.6,16.3-8,24.7l25.9,25.2l-6.1,35.6c-2,11.8,10.4,20.9,21,15.3l25.2-13.3c4.2-2.2,9.3-2.2,13.5,0l25.2,13.3
			c10.6,5.6,23.1-3.4,21-15.3l-6.1-35.6l25.9-25.2C409.4,247.9,404.7,233.3,392.8,231.6z"/>
		<path style="fill:#FFBB43;" d="M392.8,231.6l-9.8-1.4c-17.4,44.8-58.2,78.5-108.1,87.7c-1.4,11.5,10.7,20.1,21.1,14.6l25.2-13.3
			c4.2-2.2,9.3-2.2,13.5,0l25.2,13.3c10.6,5.6,23.1-3.4,21-15.3l-6.1-35.6l25.9-25.2C409.4,247.9,404.7,233.3,392.8,231.6z"/>
	</g>
</g>
</svg>
