<?xml version="1.0" encoding="utf-8"?>
<!-- Generator: Adobe Illustrator 22.1.0, SVG Export Plug-In . SVG Version: 6.00 Build 0)  -->
<svg version="1.1" xmlns="http://www.w3.org/2000/svg" xmlns:xlink="http://www.w3.org/1999/xlink" x="0px" y="0px"
	 viewBox="0 0 900 700" style="enable-background:new 0 0 900 700;" xml:space="preserve">
<g id="Layer_2">
	<g>
		<path style="fill:#D1D1D1;" d="M636.8,230.9l-35.8-5.2l-16-32.4c-5.3-10.8-20.7-10.8-26,0l-16,32.4l-35.8,5.2
			c-11.9,1.7-16.6,16.3-8,24.7l25.9,25.2l-6.1,35.6c-2,11.8,10.4,20.9,21,15.3l25.2-13.3c4.2-2.2,9.3-2.2,13.5,0l25.2,13.3
			c10.6,5.6,23.1-3.4,21-15.3l-6.1-35.6l25.9-25.2C653.4,247.2,648.7,232.6,636.8,230.9z"/>
		<path style="fill:#C2C2C2;" d="M636.8,230.9l-9.8-1.4c-17.4,44.8-58.2,78.5-108.1,87.7c-1.4,11.5,10.7,20.1,21.1,14.6l25.2-13.3
			c4.2-2.2,9.3-2.2,13.5,0l25.2,13.3c10.6,5.6,23.1-3.4,21-15.3l-6.1-35.6l25.9-25.2C653.4,247.2,648.7,232.6,636.8,230.9z"/>
	</g>
	<g>
		<path style="fill:#D1D1D1;" d="M392.8,230.9l-35.8-5.2l-16-32.4c-5.3-10.8-20.7-10.8-26,0l-16,32.4l-35.8,5.2
			c-11.9,1.7-16.6,16.3-8,24.7l25.9,25.2l-6.1,35.6c-2,11.8,10.4,20.9,21,15.3l25.2-13.3c4.2-2.2,9.3-2.2,13.5,0l25.2,13.3
			c10.6,5.6,23.1-3.4,21-15.3l-6.1-35.6l25.9-25.2C409.4,247.2,404.7,232.6,392.8,230.9z"/>
		<path style="fill:#C2C2C2;" d="M392.8,230.9l-9.8-1.4c-17.4,44.8-58.2,78.5-108.1,87.7c-1.4,11.5,10.7,20.1,21.1,14.6l25.2-13.3
			c4.2-2.2,9.3-2.2,13.5,0l25.2,13.3c10.6,5.6,23.1-3.4,21-15.3l-6.1-35.6l25.9-25.2C409.4,247.2,404.7,232.6,392.8,230.9z"/>
	</g>
	<g>
		<path style="fill:#D1D1D1;" d="M514.8,52.6L479,47.4L463,15c-5.3-10.8-20.7-10.8-26,0l-16,32.4l-35.8,5.2
			c-11.9,1.7-16.6,16.3-8,24.7l25.9,25.2l-6.1,35.6c-2,11.8,10.4,20.9,21,15.3l25.2-13.3c4.2-2.2,9.3-2.2,13.5,0l25.2,13.3
			c10.6,5.6,23.1-3.4,21-15.3l-6.1-35.6l25.9-25.2C531.4,68.9,526.7,54.3,514.8,52.6z"/>
		<path style="fill:#C2C2C2;" d="M514.8,52.6l-9.8-1.4c-17.4,44.8-58.2,78.5-108.1,87.7c-1.4,11.5,10.7,20.1,21.1,14.6l25.2-13.3
			c4.2-2.2,9.3-2.2,13.5,0l25.2,13.3c10.6,5.6,23.1-3.4,21-15.3l-6.1-35.6l25.9-25.2C531.4,68.9,526.7,54.3,514.8,52.6z"/>
	</g>
</g>
<g id="Layer_4">
	<g>
		<path style="fill:#FFCF5D;" d="M270.7,409.2L235,404l-16-32.4c-5.3-10.8-20.7-10.8-26,0L177,404l-35.8,5.2
			c-11.9,1.7-16.6,16.3-8,24.7l25.9,25.2l-6.1,35.6c-2,11.8,10.4,20.9,21,15.3l25.2-13.3c4.2-2.2,9.3-2.2,13.5,0l25.2,13.3
			c10.6,5.6,23.1-3.4,21-15.3l-6.1-35.6l25.9-25.2C287.4,425.6,282.6,410.9,270.7,409.2z"/>
		<path style="fill:#FFBB43;" d="M270.7,409.2l-9.8-1.4c-17.4,44.8-58.2,78.5-108.1,87.7c-1.4,11.5,10.7,20.1,21.1,14.6l25.2-13.3
			c4.2-2.2,9.3-2.2,13.5,0l25.2,13.3c10.6,5.6,23.1-3.4,21-15.3l-6.1-35.6l25.9-25.2C287.4,425.6,282.6,410.9,270.7,409.2z"/>
	</g>
	<g>
		<path style="fill:#FFCF5D;" d="M514.8,409.2L479,404l-16-32.4c-5.3-10.8-20.7-10.8-26,0L421,404l-35.8,5.2
			c-11.9,1.7-16.6,16.3-8,24.7l25.9,25.2l-6.1,35.6c-2,11.8,10.4,20.9,21,15.3l25.2-13.3c4.2-2.2,9.3-2.2,13.5,0l25.2,13.3
			c10.6,5.6,23.1-3.4,21-15.3l-6.1-35.6l25.9-25.2C531.4,425.6,526.7,410.9,514.8,409.2z"/>
		<path style="fill:#FFBB43;" d="M514.8,409.2l-9.8-1.4c-17.4,44.8-58.2,78.5-108.1,87.7c-1.4,11.5,10.7,20.1,21.1,14.6l25.2-13.3
			c4.2-2.2,9.3-2.2,13.5,0l25.2,13.3c10.6,5.6,23.1-3.4,21-15.3l-6.1-35.6l25.9-25.2C531.4,425.6,526.7,410.9,514.8,409.2z"/>
	</g>
	<g>
		<path style="fill:#FFCF5D;" d="M758.8,409.2L723,404l-16-32.4c-5.3-10.8-20.7-10.8-26,0L665,404l-35.8,5.2
			c-11.9,1.7-16.6,16.3-8,24.7l25.9,25.2l-6.1,35.6c-2,11.8,10.4,20.9,21,15.3l25.2-13.3c4.2-2.2,9.3-2.2,13.5,0l25.2,13.3
			c10.6,5.6,23.1-3.4,21-15.3l-6.1-35.6l25.9-25.2C775.4,425.6,770.7,410.9,758.8,409.2z"/>
		<path style="fill:#FFBB43;" d="M758.8,409.2l-9.8-1.4c-17.4,44.8-58.2,78.5-108.1,87.7c-1.4,11.5,10.7,20.1,21.1,14.6l25.2-13.3
			c4.2-2.2,9.3-2.2,13.5,0l25.2,13.3c10.6,5.6,23.1-3.4,21-15.3l-6.1-35.6l25.9-25.2C775.4,425.6,770.7,410.9,758.8,409.2z"/>
	</g>
	<g>
		<path style="fill:#FFCF5D;" d="M148.7,587.5l-35.8-5.2l-16-32.4c-5.3-10.8-20.7-10.8-26,0l-16,32.4l-35.8,5.2
			c-11.9,1.7-16.6,16.3-8,24.7L37,637.5l-6.1,35.6c-2,11.8,10.4,20.9,21,15.3l25.2-13.3c4.2-2.2,9.3-2.2,13.5,0l25.2,13.3
			c10.6,5.6,23.1-3.4,21-15.3l-6.1-35.6l25.9-25.2C165.4,603.9,160.6,589.3,148.7,587.5z"/>
		<path style="fill:#FFBB43;" d="M148.7,587.5l-9.8-1.4c-17.4,44.8-58.2,78.5-108.1,87.7c-1.4,11.5,10.7,20.1,21.1,14.6l25.2-13.3
			c4.2-2.2,9.3-2.2,13.5,0l25.2,13.3c10.6,5.6,23.1-3.4,21-15.3l-6.1-35.6l25.9-25.2C165.4,603.9,160.6,589.3,148.7,587.5z"/>
	</g>
	<g>
		<path style="fill:#FFCF5D;" d="M880.8,587.5l-35.8-5.2l-16-32.4c-5.3-10.8-20.7-10.8-26,0l-16,32.4l-35.8,5.2
			c-11.9,1.7-16.6,16.3-8,24.7l25.9,25.2l-6.1,35.6c-2,11.8,10.4,20.9,21,15.3l25.2-13.3c4.2-2.2,9.3-2.2,13.5,0l25.2,13.3
			c10.6,5.6,23.1-3.4,21-15.3l-6.1-35.6l25.9-25.2C897.5,603.9,892.7,589.3,880.8,587.5z"/>
		<path style="fill:#FFBB43;" d="M880.8,587.5l-9.8-1.4c-17.4,44.8-58.2,78.5-108.1,87.7c-1.4,11.5,10.7,20.1,21.1,14.6l25.2-13.3
			c4.2-2.2,9.3-2.2,13.5,0l25.2,13.3c10.6,5.6,23.1-3.4,21-15.3l-6.1-35.6l25.9-25.2C897.5,603.9,892.7,589.3,880.8,587.5z"/>
	</g>
	<g>
		<path style="fill:#FFCF5D;" d="M636.8,587.5l-35.8-5.2l-16-32.4c-5.3-10.8-20.7-10.8-26,0l-16,32.4l-35.8,5.2
			c-11.9,1.7-16.6,16.3-8,24.7l25.9,25.2l-6.1,35.6c-2,11.8,10.4,20.9,21,15.3l25.2-13.3c4.2-2.2,9.3-2.2,13.5,0l25.2,13.3
			c10.6,5.6,23.1-3.4,21-15.3l-6.1-35.6l25.9-25.2C653.4,603.9,648.7,589.3,636.8,587.5z"/>
		<path style="fill:#FFBB43;" d="M636.8,587.5l-9.8-1.4c-17.4,44.8-58.2,78.5-108.1,87.7c-1.4,11.5,10.7,20.1,21.1,14.6l25.2-13.3
			c4.2-2.2,9.3-2.2,13.5,0l25.2,13.3c10.6,5.6,23.1-3.4,21-15.3l-6.1-35.6l25.9-25.2C653.4,603.9,648.7,589.3,636.8,587.5z"/>
	</g>
	<g>
		<path style="fill:#FFCF5D;" d="M392.8,587.5l-35.8-5.2l-16-32.4c-5.3-10.8-20.7-10.8-26,0l-16,32.4l-35.8,5.2
			c-11.9,1.7-16.6,16.3-8,24.7l25.9,25.2l-6.1,35.6c-2,11.8,10.4,20.9,21,15.3l25.2-13.3c4.2-2.2,9.3-2.2,13.5,0l25.2,13.3
			c10.6,5.6,23.1-3.4,21-15.3l-6.1-35.6l25.9-25.2C409.4,603.9,404.7,589.3,392.8,587.5z"/>
		<path style="fill:#FFBB43;" d="M392.8,587.5l-9.8-1.4c-17.4,44.8-58.2,78.5-108.1,87.7c-1.4,11.5,10.7,20.1,21.1,14.6l25.2-13.3
			c4.2-2.2,9.3-2.2,13.5,0l25.2,13.3c10.6,5.6,23.1-3.4,21-15.3l-6.1-35.6l25.9-25.2C409.4,603.9,404.7,589.3,392.8,587.5z"/>
	</g>
</g>
</svg>
