<svg xmlns="http://www.w3.org/2000/svg" viewBox="0 0 300 300">
    <g style="opacity:0.27">
        <path style="fill:#604B41;" d="M72.6,41.4c2.1,0,4.2,0.1,6.3,0.3c8.6,1.1,17.2,4,25.7,8.7c10.4,5.9,20.4,13.8,31.2,25
		c3.8,3.9,8.9,6.1,14.4,6.1c5.4,0,10.6-2.2,14.4-6.1c11-11.4,20.9-19.3,31.1-25c0,0,0.1,0,0.1-0.1c8.4-4.7,17-7.6,25.4-8.6
		c2.5-0.2,4.6-0.4,6.4-0.4c6.1,0,19.1,3.1,29.7,11.6c13.7,10.8,20.6,27.6,20.6,49.8c0,26.3-19.5,59.4-56.4,95.6
		c-27.1,26.5-56.1,47.7-71.6,58.2c-15.5-10.6-44.6-31.7-71.6-58.2C41.5,162.1,22,129.1,22,102.7c0-22.3,7-39,20.7-49.9
		C54.8,43.4,68.3,41.4,72.6,41.4L72.6,41.4 M72.6,21.4C72.5,21.4,72.5,21.4,72.6,21.4C54.2,21.4,2,36.3,2,102.7
		C2,179,120.8,261.3,144.6,277c1.6,1.1,3.5,1.6,5.4,1.6s3.8-0.5,5.4-1.6C179.2,261.3,298,179,298,102.7c0-66.3-51.9-81.3-70.4-81.4
		c-2.9,0-5.7,0.2-8.6,0.5c-11.1,1.3-22.2,5-33.1,11.1c-11.9,6.6-23.4,15.7-35.8,28.5c-12.4-12.8-23.9-21.8-35.8-28.5
		c-10.9-6-22-9.7-33.1-11.1C78.3,21.5,75.5,21.4,72.6,21.4L72.6,21.4z M227.8,21.4h-0.3c0,0,0.1,0,0.1,0
		C227.7,21.4,227.8,21.4,227.8,21.4L227.8,21.4z" />
    </g>
</svg>