<svg xmlns="http://www.w3.org/2000/svg" viewBox="0 0 300 300">
    <g>
        <path style="fill:#FF9999;" d="M150,271.1c-0.3,0-0.8-0.1-1.2-0.4c-13.3-8.8-47.5-32.5-79.1-63.5C30.3,168.6,9.5,132.5,9.5,102.7
		c0-60.3,46.6-73.9,63-73.9c2.7,0,5.3,0.1,7.9,0.4c10.1,1.2,20.4,4.7,30.3,10.2c11.5,6.5,22.3,15.1,34.1,27.2
		c1.4,1.5,3.4,2.3,5.4,2.3s4-0.8,5.4-2.3c11.9-12.3,22.8-20.9,34.1-27.2c9.9-5.6,20.1-9,30.3-10.2c2.9-0.3,5.5-0.4,7.8-0.4
		c7.2,0,23.2,3.1,37.4,14.2c16.9,13.3,25.4,33.3,25.4,59.6c0,29.8-20.8,65.9-60.1,104.5c-31.6,31-65.9,54.8-79.1,63.5
		C150.8,271.1,150.3,271.1,150,271.1z" />
        <path style="fill:#FF9999;" d="M72.6,36.4c2.3,0,4.6,0.1,6.9,0.4C88.7,37.9,98,41,107,46c10.9,6.1,21.2,14.3,32.4,25.9
		c2.8,2.9,6.7,4.6,10.8,4.6s7.9-1.6,10.8-4.6c11.4-11.8,21.7-20,32.3-25.9c0,0,0.1,0,0.1-0.1c9-5.1,18.2-8.2,27.4-9.2
		c2.6-0.3,4.9-0.4,7-0.4c5.9,0,20.2,2.7,32.8,12.6c15,11.8,22.6,29.9,22.6,53.7c0,27.7-20,62-57.9,99.1
		c-29.1,28.5-60.4,50.8-75.1,60.7c-14.7-9.9-46-32.2-75.1-60.7C37,164.7,17,130.4,17,102.7c0-23.9,7.6-42,22.7-53.8
		C52.3,39,66.7,36.4,72.6,36.4L72.6,36.4 M72.6,21.4C72.5,21.4,72.5,21.4,72.6,21.4C54.2,21.4,2,36.3,2,102.7
		C2,179,120.8,261.3,144.6,277c1.6,1.1,3.5,1.6,5.4,1.6s3.8-0.5,5.4-1.6C179.2,261.3,298,179,298,102.7c0-66.3-51.9-81.3-70.4-81.4
		c-2.9,0-5.7,0.2-8.6,0.5c-11.1,1.3-22.2,5-33.1,11.1c-11.9,6.6-23.4,15.7-35.8,28.5c-12.4-12.8-23.9-21.8-35.8-28.5
		c-10.9-6-22-9.7-33.1-11.1C78.3,21.5,75.5,21.4,72.6,21.4L72.6,21.4z M227.8,21.4l-0.3,0c0,0,0.1,0,0.1,0
		C227.7,21.4,227.8,21.4,227.8,21.4L227.8,21.4z" />
    </g>
</svg>